<svg xmlns="http://www.w3.org/2000/svg" xmlns:xlink="http://www.w3.org/1999/xlink" width="472" height="132" viewBox="0 0 472 132"><defs><path id="djgva" d="M271.434 540c.188 6.06.989 15.827 4.946 23.741C278.357 547.914 287.261 540 287.261 540c0-4.04.484-7.967 1.398-11.725a49.31 49.31 0 0 1 10.363-20.294 49.678 49.678 0 0 1 14.47-11.659c6.926-3.691 14.833-5.782 23.229-5.782 27.316 0 49.461 22.143 49.461 49.46s-21.156 51.439-48.472 51.439c-14.838 0-23.741-3.957-31.654-9.892-11.87-9.893-5.936-21.763-5.936-21.763 1.978-5.936 11.037-15.342 21.763-5.936 13.849 13.85-5.935 23.742-5.935 23.742 5.935 7.914 17.806 5.936 17.806 5.936 9.891-9.893 10.496-22.446 7.913-29.678-5.935-21.762-34.236-24.578-45.503-15.826-21.021 16.328-13.849 37.589-9.038 44.44 4.681 6.746 11.608 13.027 18.93 16.89 9.086 4.796 19.676 5.936 30.665 5.936 36.057 0 65.287-29.23 65.287-65.288 0-36.058-29.23-65.288-65.287-65.288S270.309 503.96 271.434 540z"/><path id="djgvc" d="M419.656 547.361V527.06h2.522v20.422c0 6.007 3.665 9.61 9.431 9.61 5.826 0 9.551-3.603 9.551-9.67V527.06h2.521v20.242c0 7.388-4.684 12.193-12.072 12.193-7.388 0-11.953-4.805-11.953-12.133z"/><path id="djgvd" d="M458.095 527.06h9.489v2.341h-9.49v19.522c0 5.886 3.184 8.05 7.688 8.05.902 0 1.743-.06 2.704-.243v2.284c-.361.06-1.621.24-3.003.24-5.767 0-9.911-3.244-9.911-10.21V529.4h-4.926v-2.342h4.985v-7.508h2.464z"/><path id="djgve" d="M475.27 527.06h2.042l.24 5.945h.06c1.922-4.445 6.186-6.247 9.43-6.247.661 0 1.381.061 1.921.121v2.462c-.54-.059-1.26-.12-1.922-.12-4.503 0-9.189 3.184-9.25 9.55v20.182h-2.522z"/><path id="djgvf" d="M519.656 543.878h-25.287c.42 8.228 5.586 13.214 12.794 13.214 3.844 0 7.929-1.381 11.352-4.625v2.943c-3.363 2.763-7.328 4.084-11.472 4.084-8.95 0-15.196-6.366-15.196-16.397 0-10.332 7.087-16.58 14.775-16.58 7.088 0 13.155 5.407 13.155 15.859 0 .6-.06 1.14-.121 1.502zm-2.402-2.283c-.12-8.65-5.226-12.673-10.632-12.673-6.126 0-11.652 4.805-12.192 12.673z"/><path id="djgvg" d="M526.5 543.037c0-10.211 7.027-16.518 14.536-16.518 5.105 0 10.21 2.823 12.553 8.529l.36-7.988h1.982v31.894h-1.982l-.36-7.99c-2.343 5.767-7.448 8.53-12.494 8.53-7.568 0-14.595-6.306-14.595-16.457zm27.03-.06c0-8.53-5.587-13.996-12.255-13.996-6.606 0-12.253 5.406-12.253 14.056 0 8.589 5.706 14.055 12.315 14.055 6.546 0 12.192-5.466 12.192-14.115z"/><path id="djgvh" d="M580.495 557.092c2.523 0 5.826-.601 8.59-2.644v2.825c-2.463 1.502-5.466 2.22-8.59 2.22-8.648 0-15.437-6.907-15.437-16.516 0-9.371 6.728-16.46 15.377-16.46 2.944 0 5.947.542 8.65 2.284v2.823c-2.823-2.042-5.706-2.643-8.709-2.643-6.668 0-12.795 5.466-12.795 13.996 0 8.709 6.187 14.115 12.914 14.115z"/><path id="djgvi" d="M600.493 532.105h.062c1.8-3.484 5.766-5.586 10.09-5.586 6.848 0 11.292 4.024 11.292 11.292v21.143h-2.522v-20.242c0-6.366-3.185-9.731-8.95-9.731-5.226 0-9.972 3.004-9.972 9.19v20.783h-2.52v-47.751h2.52z"/><path id="djgvj" d="M633.406 514.265h10.93c10.573 0 17.48 5.406 17.48 14.535 0 9.07-6.727 15.017-17.297 15.017h-5.528v15.136h-5.585zm22.764 14.656c0-6.067-4.384-9.43-11.352-9.43h-5.827v19.16h5.827c6.968 0 11.352-3.604 11.352-9.73z"/><path id="djgvk" d="M669.2 558.95V510.9h5.53v48.05z"/><path id="djgvl" d="M684.517 546.459v-20h5.525v20.121c0 4.985 2.944 7.928 7.689 7.928 4.865 0 7.929-2.943 7.929-7.928v-20.121h5.525v20c0 7.81-5.105 13.216-13.454 13.216-8.288 0-13.214-5.406-13.214-13.216z"/><path id="djgvm" d="M740.855 528.56v5.467c-2.343-1.982-5.886-3.363-9.73-3.363-4.085 0-6.368 1.74-6.368 4.384 0 2.884 2.825 3.964 7.208 5.226 4.985 1.44 10.631 3.063 10.631 9.609 0 5.948-4.625 9.792-12.134 9.792-4.204 0-8.228-1.201-11.23-3.603v-5.948a15.415 15.415 0 0 0 11.051 4.625c4.384 0 6.908-1.921 6.908-4.804 0-3.124-3.064-4.145-7.75-5.587-5.345-1.621-10.09-3.363-10.09-9.07 0-5.466 4.505-9.55 11.713-9.55 3.724 0 7.508 1.08 9.79 2.823z"/><linearGradient id="djgvb" x1="382.78" x2="290" y1="493.73" y2="586.51" gradientUnits="userSpaceOnUse"><stop offset="0" stop-color="#00e2bc"/><stop offset="0" stop-color="#00e2bc"/><stop offset=".66" stop-color="#1d99e8"/><stop offset="1" stop-color="#6371dc"/></linearGradient></defs><g><g transform="translate(-271 -474)"><use fill="url(#djgvb)" xlink:href="#djgva"/></g><g transform="translate(-271 -474)"><use fill="#4d4d4d" xlink:href="#djgvc"/></g><g transform="translate(-271 -474)"><use fill="#4d4d4d" xlink:href="#djgvd"/></g><g transform="translate(-271 -474)"><use fill="#4d4d4d" xlink:href="#djgve"/></g><g transform="translate(-271 -474)"><use fill="#4d4d4d" xlink:href="#djgvf"/></g><g transform="translate(-271 -474)"><use fill="#4d4d4d" xlink:href="#djgvg"/></g><g transform="translate(-271 -474)"><use fill="#4d4d4d" xlink:href="#djgvh"/></g><g transform="translate(-271 -474)"><use fill="#4d4d4d" xlink:href="#djgvi"/></g><g transform="translate(-271 -474)"><use fill="#4d4d4d" xlink:href="#djgvj"/></g><g transform="translate(-271 -474)"><use fill="#4d4d4d" xlink:href="#djgvk"/></g><g transform="translate(-271 -474)"><use fill="#4d4d4d" xlink:href="#djgvl"/></g><g transform="translate(-271 -474)"><use fill="#4d4d4d" xlink:href="#djgvm"/></g></g></svg>